<?xml version="1.0" encoding="utf-8"?>
<svg class="wave" xmlns="http://www.w3.org/2000/svg" viewBox="0 0 1440 320">
    <path
            fill="#010f13"
            fill-opacity="1"
            d="M0,160L34.3,181.3C68.6,203,137,245,206,224C274.3,203,343,117,411,106.7C480,96,549,160,617,154.7C685.7,149,754,75,823,37.3C891.4,0,960,0,1029,42.7C1097.1,85,1166,171,1234,213.3C1302.9,256,1371,256,1406,256L1440,256L1440,320L1405.7,320C1371.4,320,1303,320,1234,320C1165.7,320,1097,320,1029,320C960,320,891,320,823,320C754.3,320,686,320,617,320C548.6,320,480,320,411,320C342.9,320,274,320,206,320C137.1,320,69,320,34,320L0,320Z"></path>
</svg>